<?xml version="1.0" standalone="no"?>
<!DOCTYPE svg PUBLIC "-//W3C//DTD SVG 20010904//EN"
 "http://www.w3.org/TR/2001/REC-SVG-20010904/DTD/svg10.dtd">
<svg version="1.0" xmlns="http://www.w3.org/2000/svg"
 width="70.000000pt" height="70.000000pt" viewBox="0 0 70.000000 70.000000"
 preserveAspectRatio="xMidYMid meet">

<g transform="translate(0.000000,70.000000) scale(0.100000,-0.100000)"
fill="#000000" stroke="none">
<path d="M57 371 l-57 -60 0 -143 c0 -99 4 -148 12 -156 14 -14 328 -17 328
-4 0 5 22 31 50 58 27 27 50 52 50 55 0 4 -29 4 -65 1 -84 -6 -140 15 -193 72
-49 53 -65 101 -60 177 2 32 2 59 -2 59 -3 0 -31 -27 -63 -59z"/>
</g>
</svg>
